# xmcd
#
# Track frame offsets:
#	150
#	5167
#	24930
#	47490
#	67890
#	83550
#	99710
#	121305
#	141558
#	151221
#	173328
#	192676
#	210003
#	215858
#	233853
#	254598
#	275194
#	278087
#
# Disc length: 3995 seconds
#
# Revision: 4
# Processed by: cddbd v1.5.1PL2 Copyright (c) Steve Scherf et al.
# Submitted via: EasyCDDAExtractor 8.2.1.1
#
DISCID=020f9912
DTITLE=MISSY MISDEMEANOR ELLIOTT - Da Real World
DYEAR=1999
DGENRE=R&B
TTITLE0=Mysterious (intro)
TTITLE1=Beat Biters
TTITLE2=Busa Rhyme (feat. Eminem)
TTITLE3=All N My Grill (feat. Big Boi Of Outkast and Nicole)
TTITLE4=Dangerous Mouth (feat. Redman)
TTITLE5=Hot Boyz
TTITLE6=You Don't Know (feat. Lil' Mo)
TTITLE7=Mr. D.J. (feat. Lady Saw)
TTITLE8=Checkin' For You (Interlude)(feat. Lil Kim)
TTITLE9=Stickin' Chickens (feat. Aaliyah and Da Brat)
TTITLE10=Smooth Chick
TTITLE11=We Did It
TTITLE12=Throw Your Hands Up (Interlude)(feat. Lil Kim)
TTITLE13=She's A B****
TTITLE14=U Can't Resist (feat. Juvenile and B. G.)
TTITLE15=Crazy Feelings (feat. Beyonce of Destiny's Child)
TTITLE16=Religious Blessings (Outro]
TTITLE17=Missy Misdemeanor Elliot feat MC Solaar - All N My Grill
EXTD=Copy: 1999 Elektra
EXTT0=
EXTT1=
EXTT2=
EXTT3=
EXTT4=
EXTT5=
EXTT6=
EXTT7=
EXTT8=
EXTT9=
EXTT10=
EXTT11=
EXTT12=
EXTT13=
EXTT14=
EXTT15=
EXTT16=
EXTT17=
PLAYORDER=
